<?xml version="1.0" standalone="no"?>
<!DOCTYPE svg PUBLIC "-//W3C//DTD SVG 20010904//EN"
 "http://www.w3.org/TR/2001/REC-SVG-20010904/DTD/svg10.dtd">
<svg version="1.0" xmlns="http://www.w3.org/2000/svg"
 width="4557.000000pt" height="3508.000000pt" viewBox="0 0 4557.000000 3508.000000"
 preserveAspectRatio="xMidYMid meet">

<g transform="translate(0.000000,3508.000000) scale(0.100000,-0.100000)"
fill="#000000" stroke="none">
<path d="M16462 34526 c-66 -69 -125 -161 -200 -312 -201 -401 -724 -1319
-815 -1429 -19 -24 -45 -39 -90 -54 -59 -19 -278 -64 -284 -58 -9 10 -44 230
-44 281 0 74 43 189 212 563 216 481 235 536 244 714 3 57 8 127 10 156 l5 51
-53 12 c-28 6 -60 14 -69 16 -19 6 -2 34 -293 -480 l-197 -348 -52 50 c-79 78
-140 112 -200 112 -74 0 -108 -41 -184 -222 -87 -207 -1155 -2567 -1953 -4315
-1107 -2426 -1516 -3310 -1567 -3388 -26 -38 -78 -103 -116 -143 -164 -172
-282 -218 -866 -337 -322 -65 -546 -122 -653 -164 -121 -48 -205 -93 -450
-239 -197 -117 -227 -139 -223 -156 3 -12 8 -49 12 -83 3 -35 12 -67 18 -71 6
-5 319 -60 696 -122 377 -62 686 -114 688 -116 2 -1 -184 -386 -414 -855 -666
-1365 -1040 -2139 -1068 -2211 -62 -157 -83 -278 -111 -620 -25 -303 -37 -348
-185 -694 -474 -1102 -968 -2153 -1307 -2783 -169 -313 -258 -501 -307 -652
-57 -174 -76 -289 -75 -453 l0 -131 20 95 c44 211 135 426 342 810 195 361
485 949 744 1510 237 513 667 1491 702 1601 30 90 48 209 66 424 27 331 46
431 112 599 37 94 284 605 1123 2324 475 973 496 1012 522 1012 15 0 29 -4 33
-10 3 -5 -225 -481 -506 -1057 -754 -1544 -1143 -2349 -1173 -2425 -62 -157
-83 -278 -111 -620 -25 -303 -37 -348 -185 -694 -474 -1102 -968 -2153 -1307
-2783 -296 -548 -383 -794 -383 -1079 0 -95 -2 -108 -27 -153 -16 -27 -31 -49
-34 -49 -4 0 -116 101 -249 225 -134 124 -244 224 -245 223 -10 -12 -546
-1050 -544 -1052 2 -2 27 -15 56 -30 l52 -26 19 25 c10 13 108 195 216 404
109 210 200 381 202 381 3 0 113 -100 245 -222 131 -123 243 -224 247 -225 4
-2 25 31 47 72 22 41 43 75 46 75 3 0 11 -18 18 -39 8 -28 8 -47 1 -67 -15
-40 -104 -194 -111 -194 -4 0 -116 101 -249 225 -134 124 -244 224 -245 223
-10 -12 -546 -1050 -544 -1052 2 -2 27 -15 54 -29 l50 -24 330 213 c181 118
331 210 333 204 2 -5 -38 -189 -89 -409 l-92 -399 23 -33 c22 -29 24 -31 32
-13 4 10 46 188 94 394 47 206 87 376 89 378 2 2 8 -6 14 -17 9 -16 -14 -130
-119 -582 -71 -310 -130 -569 -130 -577 0 -27 133 -146 206 -184 162 -85 311
-92 664 -33 118 20 265 38 325 42 117 6 1540 -8 3340 -32 1530 -21 2185 -23
2370 -7 198 17 483 58 542 78 96 32 223 120 281 196 33 42 168 311 273 538
142 312 427 965 421 967 -9 3 -2859 32 -4207 43 -1118 9 -1306 16 -1442 50
-241 61 -414 222 -414 385 0 31 1 59 3 61 2 2 24 -26 47 -62 75 -114 223 -202
401 -240 111 -23 389 -33 1140 -39 1039 -8 3582 -33 3996 -40 l351 -5 66 148
c37 81 63 148 59 149 -10 3 -2860 32 -4207 43 -1118 9 -1306 16 -1442 50 -83
21 -219 84 -267 124 l-29 24 74 82 c195 215 292 409 428 855 38 127 77 250 85
273 28 78 121 253 237 447 211 353 265 477 374 855 123 424 275 739 785 1625
114 198 226 395 249 437 60 111 164 263 342 503 276 371 286 389 678 1175 282
565 468 955 701 1465 252 554 279 600 407 697 108 81 211 111 466 133 232 21
395 49 792 136 451 99 512 110 670 116 133 5 248 -6 267 -25 4 -4 15 -34 23
-65 19 -74 49 -134 89 -175 78 -84 173 -98 416 -62 138 21 163 22 244 11 50
-7 225 -27 390 -46 164 -19 300 -36 301 -37 2 -2 -31 -35 -74 -73 -834 -755
-1607 -1452 -2051 -1850 -305 -273 -593 -534 -638 -579 -240 -234 -397 -499
-468 -790 -27 -113 -50 -348 -39 -404 7 -35 9 -31 26 54 60 291 215 573 445
809 33 33 325 299 649 590 1026 920 2016 1816 2131 1927 61 59 146 148 190
198 75 86 81 90 119 89 101 -2 104 5 -102 -221 -136 -150 -265 -276 -468 -460
-582 -527 -1329 -1200 -1850 -1667 -587 -526 -687 -620 -774 -726 -182 -222
-300 -473 -348 -740 -22 -124 -21 -369 2 -500 32 -181 117 -443 142 -438 6 1
125 83 266 183 140 99 258 180 261 180 4 0 4 -11 0 -25 -3 -14 -2 -25 3 -25
17 0 33 24 33 51 0 15 5 31 10 34 14 9 13 -9 -19 -285 -16 -135 -28 -246 -26
-248 11 -11 220 125 325 212 69 56 976 802 2015 1657 3039 2500 3445 2834
3545 2919 56 47 128 97 175 121 93 46 113 49 805 119 808 81 2313 210 2324
200 15 -14 -217 -537 -480 -1085 -256 -531 -540 -1073 -1154 -2205 -827 -1524
-1162 -2181 -1507 -2955 -112 -250 -273 -636 -273 -653 0 -10 15 -12 57 -10
l57 3 49 115 c319 749 738 1584 1485 2960 687 1266 820 1517 1125 2130 302
604 460 946 654 1410 35 85 68 159 72 163 4 4 16 -4 25 -18 16 -25 15 -29 -63
-218 -378 -916 -742 -1647 -1681 -3377 -827 -1524 -1162 -2181 -1507 -2955
-114 -255 -273 -636 -273 -653 0 -23 376 -10 502 17 403 87 746 307 1208 771
575 579 1127 1272 1775 2235 527 782 986 1565 1650 2815 370 697 427 803 511
947 377 644 768 1052 1269 1324 55 30 113 61 129 68 l30 12 -75 41 c-140 76
-243 169 -280 254 -24 53 -39 137 -32 181 5 31 6 30 39 -35 18 -37 46 -80 63
-96 l29 -28 99 54 c54 30 111 60 127 67 l30 12 -75 41 c-91 49 -150 93 -208
151 -37 39 -43 49 -37 73 4 15 93 219 198 453 1063 2377 2894 6565 2929 6700
42 164 34 323 -23 474 -58 153 -412 812 -436 812 -5 0 -153 -135 -328 -301
-455 -428 -497 -468 -709 -653 -211 -186 -1759 -1520 -3950 -3406 -792 -682
-1991 -1714 -2665 -2294 -674 -581 -1272 -1093 -1330 -1140 -285 -230 -597
-394 -895 -471 -184 -48 -308 -62 -545 -64 l-215 -1 -115 -52 c-144 -64 -494
-200 -620 -241 -234 -76 -375 -72 -783 23 -280 65 -389 78 -572 72 -124 -4
-170 -11 -265 -36 -407 -107 -778 -102 -1479 20 -558 97 -756 129 -889 145
-120 15 -143 20 -139 33 3 9 608 1440 1346 3180 738 1740 1339 3166 1337 3169
-3 2 -126 -14 -273 -37 -147 -23 -278 -41 -289 -41 -19 0 7 63 243 582 145
321 266 584 267 586 2 1 67 -108 146 -243 78 -135 143 -245 143 -245 7 0 180
49 182 52 5 5 -249 1366 -256 1372 -3 4 -29 -18 -57 -48z m9089 -5636 c3 -169
1 -189 -18 -230 -11 -25 -102 -223 -201 -441 -313 -686 -473 -1010 -636 -1289
-199 -341 -588 -543 -1046 -544 -147 0 -206 8 -338 46 -88 26 -119 53 -166
147 -60 118 -81 216 -51 241 12 10 15 10 15 -1 0 -24 55 -132 86 -168 37 -44
85 -65 214 -91 132 -27 332 -29 469 -5 271 47 503 162 671 334 106 108 192
255 420 716 171 346 445 943 437 951 -3 3 -35 -3 -73 -13 l-67 -18 -107 -230
c-204 -441 -400 -822 -505 -981 -153 -230 -436 -401 -765 -460 -114 -21 -357
-24 -445 -5 -94 19 -198 51 -219 67 -19 13 -13 20 95 122 292 277 521 490 984
917 997 920 1230 1132 1237 1126 4 -3 8 -89 9 -191z"/>
<path d="M34151 33977 c-5 -12 -16 -40 -25 -61 -13 -32 -14 -42 -4 -53 7 -7
87 -66 178 -132 l164 -119 226 -68 c1193 -356 2418 -895 3485 -1532 356 -213
790 -495 1055 -687 51 -37 98 -64 105 -62 7 3 30 -13 51 -35 22 -22 93 -81
159 -131 1210 -915 2190 -2008 3007 -3352 232 -383 955 -1690 1246 -2255 525
-1019 869 -1951 1026 -2780 40 -212 191 -1166 251 -1585 81 -566 127 -984 160
-1438 l14 -192 -5 199 c-10 445 -82 1142 -195 1901 -74 497 -209 1328 -245
1505 -126 622 -343 1267 -667 1985 -108 239 -424 872 -583 1165 -181 336 -770
1396 -877 1580 -822 1412 -1848 2588 -3064 3513 -1046 795 -2238 1476 -3468
1982 -638 263 -992 383 -1958 666 -24 7 -29 4 -36 -14z"/>
<path d="M34151 33527 c-5 -12 -16 -39 -25 -61 -9 -21 -14 -42 -11 -46 4 -7
359 -269 408 -302 6 -3 2 -21 -11 -43 -12 -20 -22 -40 -22 -44 0 -4 17 -15 38
-25 20 -10 71 -37 112 -61 41 -24 104 -51 140 -60 36 -8 76 -20 90 -26 14 -6
532 -380 1152 -831 l1128 -820 -27 -39 c-17 -24 -34 -38 -44 -36 -8 2 -577
347 -1264 766 -686 420 -1254 765 -1261 768 -11 4 -33 -26 -102 -139 l-23 -36
153 -110 c195 -140 408 -279 888 -582 636 -400 1015 -659 1280 -874 282 -228
1212 -1024 1525 -1304 269 -242 809 -776 986 -978 337 -382 628 -772 968
-1297 405 -625 684 -1111 1416 -2467 227 -421 447 -827 489 -902 128 -232 211
-451 289 -768 416 -1674 522 -2193 589 -2865 8 -78 13 -261 12 -455 0 -356 -4
-405 -84 -975 -61 -437 -68 -530 -74 -915 -5 -358 -14 -467 -52 -613 -16 -63
-361 -892 -574 -1382 -589 -1349 -1076 -2186 -1721 -2955 -90 -107 -241 -291
-335 -408 l-172 -214 65 -59 c36 -32 68 -59 72 -59 4 0 355 369 781 820 622
659 776 817 789 810 9 -5 38 -29 66 -53 l49 -44 -147 -194 c-80 -107 -513
-675 -961 -1264 -447 -588 -810 -1071 -807 -1073 4 -1 133 22 287 52 153 30
405 78 559 106 700 128 908 189 1045 305 236 202 728 689 964 955 706 795
1277 1658 1706 2580 476 1022 681 1796 761 2870 6 85 12 411 13 725 1 314 -1
530 -4 480 l-6 -90 -2 71 c-6 219 -58 768 -118 1234 -65 512 -256 1732 -320
2050 -126 622 -343 1267 -667 1985 -108 239 -424 872 -583 1165 -181 336 -770
1396 -877 1580 -822 1412 -1848 2588 -3064 3513 -1046 795 -2238 1476 -3468
1982 -638 263 -992 383 -1958 666 -24 7 -29 4 -36 -14z m5814 -3402 c703 -656
773 -724 1327 -1288 386 -392 391 -398 372 -417 -19 -19 -36 -3 -1174 1061
-635 595 -1183 1108 -1218 1141 l-63 61 37 38 38 39 25 -23 c15 -13 310 -288
656 -612z m2311 -16331 c32 -25 67 -52 77 -59 17 -12 -21 -65 -468 -647 -268
-348 -495 -641 -505 -652 -18 -18 -20 -17 -101 45 -46 35 -83 68 -82 73 1 12
1004 1286 1013 1286 3 0 33 -21 66 -46z"/>
<path d="M20604 27430 l-171 -5 -58 -50 c-395 -343 -724 -533 -1080 -625 -184
-48 -308 -62 -545 -64 l-215 -1 -115 -52 c-288 -128 -664 -264 -785 -284 -106
-17 -291 -6 -440 26 -201 44 -176 47 -226 -26 -23 -35 -65 -92 -92 -126 -47
-60 -48 -62 -25 -68 696 -164 724 -162 1333 84 121 48 249 101 285 117 64 28
68 29 320 35 222 5 272 10 385 33 183 38 346 94 520 181 258 127 390 222 810
583 280 241 293 253 280 250 -6 -1 -87 -5 -181 -8z"/>
<path d="M3275 22056 c-28 -19 -62 -47 -76 -62 -57 -61 -807 -1168 -1051
-1549 -536 -840 -912 -1585 -1152 -2283 -82 -239 -226 -722 -688 -2297 l-243
-830 -3 -1678 -2 -1679 31 -106 c17 -59 66 -217 109 -352 194 -608 227 -749
260 -1136 37 -429 87 -786 165 -1164 316 -1540 1031 -3079 2215 -4765 180
-257 472 -654 587 -798 319 -401 705 -796 1088 -1117 1170 -977 2648 -1630
4525 -1999 707 -139 884 -150 1197 -71 204 52 392 136 778 348 245 135 440
230 562 275 87 32 88 33 91 69 l3 37 -68 20 c-999 299 -2750 838 -2747 846 1
5 12 42 24 82 l20 71 443 -148 c243 -82 794 -255 1224 -386 l782 -237 118 50
c65 28 136 57 158 65 36 12 40 18 43 50 l3 37 -73 22 c-235 70 -592 180 -596
184 -2 2 1 24 7 49 6 25 11 51 11 58 0 8 -53 42 -117 75 -108 56 -140 67 -373
127 -1367 349 -2457 808 -3478 1463 -107 69 -273 170 -370 225 -340 193 -408
233 -537 318 -161 107 -284 209 -397 329 -105 112 -182 223 -278 401 -166 309
-267 442 -478 631 -197 177 -534 516 -661 664 -407 475 -643 890 -850 1496
-112 330 -174 492 -407 1072 -337 835 -454 1175 -553 1607 -61 263 -90 464
-121 830 -28 333 -58 606 -145 1335 -82 686 -126 1103 -149 1420 -57 773 -43
1403 45 2010 221 1532 651 3074 1269 4545 59 140 121 296 139 345 44 126 141
439 136 443 -5 5 -188 72 -190 70 -1 -2 -244 -573 -541 -1270 -573 -1348 -548
-1294 -596 -1255 -14 11 -10 30 37 177 695 2176 1064 3354 1053 3362 -7 4 -40
8 -73 8 -52 0 -67 -5 -110 -34z m-2258 -5109 c4 -5 -444 -3355 -451 -3366 -5
-8 -125 5 -135 15 -11 11 -5 849 7 1004 52 654 142 1198 303 1845 52 209 120
462 135 504 3 11 19 12 71 8 36 -4 68 -8 70 -10z m8197 -15584 c429 -146 785
-270 790 -274 8 -7 -49 -195 -63 -204 -7 -4 -1588 518 -1597 528 -4 4 78 217
84 217 2 0 356 -120 786 -267z"/>
<path d="M30202 20882 c-583 -592 -1095 -1110 -1136 -1151 l-75 -75 -55 52
-54 51 345 443 c190 244 358 459 374 479 l28 36 -37 36 -38 37 -345 -392
c-190 -216 -647 -735 -1015 -1153 -1702 -1932 -2183 -2488 -3109 -3590 -1022
-1217 -1273 -1507 -1351 -1561 -189 -132 -370 -184 -1059 -304 -407 -71 -637
-120 -748 -160 -90 -33 -184 -88 -385 -225 -159 -107 -147 -87 -118 -205 l11
-44 670 -116 c369 -64 675 -118 682 -121 11 -4 -1683 -2454 -1710 -2473 -8 -5
-35 3 -74 23 -54 27 -63 35 -67 63 -14 87 -98 875 -111 1043 -20 256 -32 697
-50 1785 -17 1019 -31 1565 -45 1745 -12 146 -37 253 -140 590 -43 143 -85
282 -93 308 -7 27 -15 49 -18 50 -4 2 -5720 -5537 -6116 -5927 -73 -71 -135
-127 -138 -124 -5 4 27 80 91 213 9 20 1232 1214 3086 3012 1688 1638 3074
2979 3078 2981 4 2 11 -13 14 -31 4 -19 40 -144 82 -278 91 -296 140 -481 152
-580 l9 -74 2 105 c2 250 -21 375 -149 795 -43 143 -85 282 -93 308 -7 27 -17
47 -22 45 -8 -2 -5360 -5187 -5778 -5597 -99 -96 -116 -110 -104 -81 19 47
393 846 605 1295 650 1377 1325 2767 2166 4460 514 1035 621 1244 1281 2505
243 465 487 933 542 1040 113 218 338 689 332 694 -15 14 -131 66 -138 62 -5
-3 -687 -1254 -1516 -2780 -830 -1526 -1512 -2773 -1517 -2770 -4 3 -8 44 -7
92 0 48 3 80 7 71 5 -12 490 872 1519 2765 1212 2230 1515 2781 1530 2779 14
-2 30 23 72 113 29 63 52 116 50 118 -2 2 -33 18 -68 36 -52 26 -66 29 -76 18
-7 -7 -191 -344 -410 -748 -219 -404 -403 -739 -408 -745 -12 -13 -16 -20 145
285 151 286 169 327 244 558 l52 163 -32 13 c-17 7 -55 21 -85 31 -45 14 -55
15 -65 4 -7 -8 -201 -338 -431 -734 -230 -396 -419 -722 -422 -725 -2 -2 -51
19 -109 48 l-104 52 30 60 c17 33 33 60 35 60 3 0 37 -16 75 -35 l70 -35 23
37 c13 21 207 354 431 740 l408 701 44 -16 c24 -9 45 -14 47 -12 2 3 22 63 44
133 l41 128 -32 13 c-17 7 -55 21 -85 31 -45 14 -55 15 -65 4 -7 -8 -201 -338
-431 -734 -230 -396 -419 -722 -421 -724 -2 -2 -10 -1 -19 3 -14 5 46 130 334
701 193 382 351 699 351 704 0 12 -118 94 -129 89 -12 -5 -283 -336 -376 -459
-108 -144 -136 -193 -408 -719 -611 -1184 -1234 -2422 -1704 -3390 -1605
-3300 -3600 -7470 -3678 -7685 -26 -71 -76 -236 -112 -365 -36 -129 -78 -280
-93 -335 -16 -54 -28 -100 -27 -101 6 -6 137 -37 140 -34 2 3 147 380 322 837
175 458 320 831 322 829 6 -5 -125 -479 -219 -796 -74 -248 -244 -762 -392
-1185 -64 -183 -81 -279 -65 -355 6 -27 14 -50 17 -50 7 0 27 53 166 450 236
670 485 1541 656 2295 34 154 96 352 106 342 8 -8 -120 -574 -216 -957 -180
-717 -360 -1306 -664 -2175 -30 -88 -60 -193 -66 -232 -19 -140 22 -223 137
-279 45 -22 54 -31 49 -48 -3 -16 7 -30 45 -60 28 -21 51 -37 53 -35 2 2 13
22 24 44 l20 40 16 -37 c9 -21 16 -42 16 -48 0 -6 -41 -92 -91 -191 -49 -100
-89 -182 -87 -183 2 -1 29 -23 61 -50 l58 -48 172 168 c95 93 1625 1609 3401
3369 1776 1760 3232 3201 3236 3203 4 1 10 -284 14 -635 32 -3039 145 -4735
432 -6490 l37 -223 61 44 c34 24 175 125 315 224 l254 181 257 388 c497 752
2756 4081 3728 5493 340 494 392 556 572 679 115 79 182 101 340 112 442 28
1447 39 1825 19 437 -23 789 -64 1202 -141 l112 -21 91 -121 c50 -66 87 -124
83 -128 -5 -4 -69 -28 -143 -54 -161 -56 -241 -92 -295 -132 -139 -103 -2279
-2025 -2409 -2163 -160 -170 -275 -365 -322 -546 -49 -185 -44 -434 12 -667
21 -86 81 -285 89 -295 2 -2 87 58 189 133 103 75 193 138 200 141 9 4 35 -48
85 -175 l72 -179 148 104 c82 58 238 178 347 268 212 172 583 472 1334 1076
1068 859 1685 1376 2300 1925 465 415 677 568 1025 740 236 116 431 186 666
239 292 65 524 82 933 66 193 -8 442 -9 694 -5 l392 7 -29 -63 c-148 -327
-556 -1163 -832 -1702 -407 -795 -672 -1295 -1484 -2802 -1379 -2558 -1933
-3647 -2500 -4910 -59 -132 -120 -269 -136 -304 -16 -35 -28 -66 -26 -67 2 -2
34 4 72 14 l68 17 122 265 c215 470 403 863 697 1450 451 904 716 1408 1663
3165 1312 2434 1814 3412 2361 4590 79 171 148 317 153 325 9 17 71 27 71 12
0 -5 -58 -135 -129 -288 -611 -1324 -1094 -2266 -2416 -4719 -1379 -2558
-1933 -3647 -2500 -4910 -59 -132 -120 -269 -136 -304 -16 -35 -28 -66 -26
-68 2 -2 55 10 118 26 311 81 525 185 644 312 106 113 420 655 1045 1804 123
226 277 505 343 620 128 225 436 745 442 745 3 0 -175 -368 -440 -905 -79
-159 -232 -445 -340 -635 -351 -612 -480 -896 -569 -1247 -14 -56 -26 -104
-26 -107 0 -3 20 4 44 16 44 21 45 23 102 167 74 189 231 497 425 836 223 388
292 517 435 815 69 146 290 595 490 998 388 784 361 738 412 704 10 -7 -74
-185 -365 -768 -208 -417 -462 -930 -565 -1139 -120 -246 -256 -502 -383 -725
-351 -612 -480 -896 -569 -1247 -14 -56 -26 -104 -26 -108 0 -20 153 79 224
145 92 85 -67 -184 1826 3095 1978 3426 3410 5890 3578 6160 171 273 325 496
736 1060 294 404 416 576 416 586 0 4 -10 11 -21 14 -34 11 -110 86 -126 125
-37 86 -9 187 113 415 76 141 248 521 834 1850 775 1756 1199 2699 1565 3480
182 388 235 539 266 753 19 133 7 384 -25 508 -53 213 -171 446 -324 643 l-19
23 -45 -20 c-28 -12 -176 -133 -394 -324 -192 -167 -927 -808 -1634 -1424
-2000 -1743 -2991 -2604 -4005 -3479 -625 -540 -1492 -1285 -1604 -1378 -237
-198 -493 -344 -796 -455 -101 -37 -168 -54 -540 -141 -72 -17 -243 -67 -380
-111 -425 -138 -563 -165 -793 -157 -121 4 -163 9 -236 31 -112 34 -212 80
-300 139 -47 32 -79 47 -101 47 -20 0 -73 -21 -137 -55 -211 -110 -391 -151
-623 -142 -158 7 -266 25 -610 102 -332 74 -423 87 -609 89 l-159 1 -33 74
c-19 40 -30 79 -26 85 6 11 5141 6004 5195 6064 l21 22 -34 35 c-19 19 -37 35
-40 35 -4 0 -350 -335 -770 -744 l-764 -743 -68 61 c-37 33 -68 64 -68 68 0 6
1279 1362 1529 1621 l45 47 -31 31 -31 32 -159 -83 c-87 -46 -199 -105 -250
-132 l-92 -49 -20 39 -20 40 389 447 390 447 -57 51 c-31 29 -64 57 -73 64
-14 10 -162 -136 -1078 -1065z m-11692 -1152 c-6 -11 -13 -20 -16 -20 -2 0 0
9 6 20 6 11 13 20 16 20 2 0 0 -9 -6 -20z m10748 -1101 c-2 -6 -388 -431 -858
-945 l-855 -935 -58 63 c-31 34 -56 66 -55 69 2 4 34 33 72 65 127 108 262
284 456 594 173 276 244 381 334 494 243 306 504 481 866 581 101 28 103 28
98 14z m6819 -1831 l101 -78 -53 -94 c-29 -52 -135 -244 -236 -427 -336 -615
-517 -917 -706 -1183 -106 -149 -133 -178 -206 -227 -122 -80 -274 -127 -596
-184 -175 -31 -197 -33 -217 -20 -48 31 -181 246 -219 355 l-16 44 63 64 c336
343 1953 1846 1972 1835 6 -4 57 -42 113 -85z m-12939 -3960 c38 -26 60 -48
57 -56 -3 -7 -323 -452 -711 -987 l-707 -975 -45 33 c-24 19 -44 38 -43 43 1
12 1374 1984 1381 1984 3 0 33 -19 68 -42z"/>
<path d="M18322 21607 c-188 -231 -273 -346 -332 -447 -39 -69 -369 -704 -713
-1375 -305 -596 -964 -1916 -1264 -2535 -1590 -3271 -3600 -7471 -3676 -7680
-52 -145 -62 -177 -156 -522 -39 -141 -73 -263 -77 -271 -3 -10 6 -17 34 -24
l39 -10 43 156 c55 200 121 400 169 510 21 47 166 356 323 686 181 380 314
674 363 803 43 111 79 201 81 200 1 -2 -1 -23 -6 -48 -5 -25 -7 -46 -6 -47 1
-1 117 240 258 535 858 1796 2143 4460 2827 5862 280 573 876 1757 1241 2465
554 1074 553 1074 727 1290 214 266 295 360 311 360 11 0 34 33 69 100 29 55
52 105 52 112 1 12 -110 93 -126 93 -4 0 -86 -96 -181 -213z"/>
<path d="M20743 15150 c0 -47 2 -66 4 -42 2 23 2 61 0 85 -2 23 -4 4 -4 -43z"/>
<path d="M7680 13285 l0 -65 1385 0 1385 0 0 65 0 65 -1385 0 -1385 0 0 -65z"/>
<path d="M7680 12835 l0 -65 1385 0 1385 0 0 65 0 65 -1385 0 -1385 0 0 -65z"/>
<path d="M3660 7341 c0 -17 15 -62 34 -99 19 -38 51 -111 71 -163 19 -52 40
-104 45 -117 14 -32 70 -257 70 -280 0 -24 102 -185 211 -333 199 -270 454
-550 738 -812 386 -355 456 -441 646 -792 100 -184 168 -283 273 -396 172
-185 359 -317 822 -581 168 -96 375 -220 461 -276 773 -499 1589 -884 2534
-1195 127 -42 262 -85 300 -97 59 -17 1090 -230 1114 -230 8 0 41 115 41 143
0 7 -53 41 -117 74 -108 56 -140 67 -373 127 -1367 349 -2457 808 -3478 1463
-107 69 -273 170 -370 225 -340 193 -408 233 -537 318 -161 107 -284 209 -397
329 -105 112 -182 223 -278 401 -166 309 -267 442 -478 631 -197 177 -534 516
-661 664 -255 298 -467 613 -617 919 -44 89 -54 103 -54 77z"/>
</g>
</svg>
